<svg id="Layer_1" data-name="Layer 1" xmlns="http://www.w3.org/2000/svg" viewBox="0 0 348.42 348.42"><defs><style>.cls-1{fill:#ef7d05;}.cls-2{fill:#fff;}.cls-3{fill:#5cbe1d;}.cls-4{fill:#8bd40a;}</style></defs><title>Logo Dixy_значок</title><path class="cls-1" d="M381.32,195.79a173.39,173.39,0,0,1-24.05,88.3s-60.67,21.4-150.16,21.4S57,284.09,57,284.09a174.2,174.2,0,1,1,324.37-88.3Z" transform="translate(-32.9 -21.58)"/><path class="cls-2" d="M233,210.62H179.16a55.33,55.33,0,0,0,7-14.43,127,127,0,0,0,4.33-17.26q1.58-8.85,2.23-17.32c.43-5.63.65-30.4.65-34.6v-8.53H233v92.14Zm52.22,4.82a4.82,4.82,0,0,0-4.82-4.82h-9.48V100.55h0V92.27h0s0,0,0-.06a4.83,4.83,0,0,0-4.83-4.82h-87.7q-3.93,0-7.53-.07a22.65,22.65,0,0,0-6.42.72,8.69,8.69,0,0,0-4.46,2.76q-1.63,2-1.64,6v12.73q0,6.43-.2,13.91c-.13,5-.43,29.92-.92,35.13S156,169,155.08,174.08a99,99,0,0,1-3.76,14.56,61.66,61.66,0,0,1-5.93,12.6,35.49,35.49,0,0,1-6.34,7.65,8.2,8.2,0,0,1-4.12,1.93,9.4,9.4,0,0,0-3.71,1.37c-1.45,1-2.17,3-2.17,6.17v42.48h0v.06a4.82,4.82,0,0,0,4.82,4.82h28.27A4.82,4.82,0,0,0,167,260.9s0,0,0-.06h0V241.32h80v11.24h0v8.28h0s0,0,0,.06a4.82,4.82,0,0,0,4.82,4.82h28.54a4.82,4.82,0,0,0,4.82-4.82v-.06h0V215.5h0v-.06Z" transform="translate(-32.9 -21.58)"/><path class="cls-3" d="M64.91,296.34a174.08,174.08,0,0,0,284.39,0s-70.42,24.13-142.19,24.13-142.2-24.13-142.2-24.13Z" transform="translate(-32.9 -21.58)"/><path class="cls-4" d="M207.11,320.47c71.77,0,142.19-24.13,142.19-24.13s-59.73,48.25-143.24,48.25S64.91,296.34,64.91,296.34s70.43,24.13,142.2,24.13Z" transform="translate(-32.9 -21.58)"/></svg>