<?xml version="1.0" encoding="utf-8"?>
<!-- Generator: Adobe Illustrator 23.0.3, SVG Export Plug-In . SVG Version: 6.00 Build 0)  -->
<svg version="1.1" id="Layer_1" xmlns="http://www.w3.org/2000/svg" xmlns:xlink="http://www.w3.org/1999/xlink" x="0px" y="0px"
	 viewBox="0 0 572 141.7" style="enable-background:new 0 0 572 141.7;" xml:space="preserve">
<style type="text/css">
	.st0{fill:#FFFFFF;}
	.st1{fill:#EF7D05;}
	.st2{fill:#5CBE1D;}
	.st3{fill:#8BD40A;}
</style>
<circle class="st0" cx="70.9" cy="70.9" r="81.2"/>
<title>Logo Dixy_gorizont</title>
<path class="st1" d="M141.7,70.8c0,12.6-3.4,25-9.8,35.9c0,0-24.7,8.7-61.1,8.7s-61.1-8.7-61.1-8.7C-10.1,73,1.2,29.6,34.9,9.8
	s77.2-8.6,97,25.2C138.3,45.8,141.7,58.2,141.7,70.8z"/>
<path class="st0" d="M81.4,76.9H59.5c1.2-1.8,2.2-3.8,2.8-5.9c0.8-2.3,1.3-4.6,1.8-7c0.4-2.4,0.7-4.7,0.9-7
	c0.2-2.3,0.3-12.4,0.3-14.1v-3.5h16.1V76.9L81.4,76.9z M102.6,78.9c0-1.1-0.9-2-2-2h-3.9V32.1l0,0v-3.4l0,0l0,0c0-1.1-0.9-2-2-2
	H59.2c-1.1,0-2.1,0-3.1,0c-0.9,0-1.8,0.1-2.6,0.3c-0.7,0.2-1.3,0.6-1.8,1.1c-0.5,0.7-0.7,1.6-0.7,2.5v5.2c0,1.8,0,3.6-0.1,5.7
	s-0.2,12.2-0.4,14.3s-0.5,4.2-0.9,6.3c-0.4,2-0.9,4-1.5,5.9c-0.6,1.8-1.4,3.5-2.4,5.1c-0.7,1.2-1.6,2.2-2.6,3.1
	c-0.5,0.4-1.1,0.7-1.7,0.8C41,77,40.4,77.2,40,77.5c-0.7,0.6-1,1.6-0.9,2.5v17.3l0,0l0,0c0,1.1,0.9,2,2,2h11.5c1.1,0,2-0.9,2-2l0,0
	l0,0v-1.8l0,0v-6.1h32.5v4.6l0,0v3.3l0,0l0,0c0,1.1,0.9,2,2,2h11.6c1.1,0,2-0.9,2-2l0,0l0,0V78.9l0,0l0,0L102.6,78.9z"/>
<path class="st2" d="M13,111.7c22.5,31.9,66.7,39.6,98.7,17c6.6-4.7,12.3-10.4,17-17c0,0-28.6,9.8-57.8,9.8S13,111.7,13,111.7z"/>
<path class="st3" d="M70.8,121.5c29.2,0,57.8-9.8,57.8-9.8s-24.3,19.6-58.3,19.6S13,111.7,13,111.7S41.7,121.6,70.8,121.5
	L70.8,121.5z"/>
<path class="st0" d="M268.2,91.4h-5v-62l0,0l0,0c0-1.4-1.1-2.5-2.5-2.5h-45.9c-1.4,0-2.7,0-3.9,0c-1.1,0-2.3,0.1-3.4,0.4
	c-0.9,0.2-1.7,0.7-2.3,1.4c-0.6,0.9-0.9,2-0.9,3.2v6.7c0,2.3,0,4.7-0.1,7.3c-0.1,2.6-0.2,15.7-0.5,18.4s-0.6,5.4-1.1,8.1
	c-0.5,2.6-1.1,5.1-2,7.6c-0.8,2.3-1.8,4.5-3.1,6.6c-0.9,1.5-2.1,2.9-3.4,4.1c-0.5,0.5-1.2,0.8-1.9,0.9c-0.7,0.1-1.4,0.3-2.1,0.7
	c-0.8,0.5-1.1,1.6-1.1,3.2v22.3l0,0l0,0c0,1.4,1.2,2.5,2.6,2.5c0,0,0,0,0,0h14.8c1.4,0,2.5-1.1,2.5-2.5c0,0,0,0,0,0l0,0l0,0v-10.2
	h41.9v10.2l0,0l0,0c0,1.4,1.1,2.5,2.5,2.5c0,0,0,0,0,0h15c1.4,0,2.5-1.1,2.5-2.5l0,0l0,0V94l0,0l0,0
	C270.7,92.6,269.6,91.5,268.2,91.4C268.2,91.5,268.2,91.5,268.2,91.4L268.2,91.4z M243.4,91.4h-28.2c1.6-2.3,2.8-4.9,3.6-7.6
	c1-2.9,1.7-6,2.3-9c0.5-3.1,0.9-6.1,1.2-9.1c0.2-3,0.3-15.9,0.3-18.1v-4.5h20.8V91.4L243.4,91.4z"/>
<path class="st0" d="M402,61.7l26-29.5c1.1-1.3,1-3.3-0.3-4.4c-0.6-0.5-1.3-0.8-2.1-0.8h-16c-0.9,0-1.8,0.4-2.4,1.1l-27.4,31.9V30.2
	c0-1.7-1.4-3.1-3.1-3.1l0,0h-13.4c-1.7,0-3.1,1.4-3.1,3.1c0,0,0,0,0,0v76.2c0,1.7,1.4,3.1,3.1,3.1l0,0h13.3c1.7,0,3.1-1.4,3.1-3.1
	c0,0,0,0,0,0V85.2l8.7-9.6l19.7,32.5c0.6,0.9,1.6,1.5,2.7,1.5h15.1c1.1,0,2.2-0.6,2.7-1.6c0.6-1,0.5-2.2-0.1-3.2L402,61.7L402,61.7z
	"/>
<path class="st0" d="M491.8,87.4c-0.9-0.6-2.1-0.6-3.1-0.1c-6.6,3.4-13.8,5.1-21.2,5.1c-13.9,0-24-10.1-24-24.1
	c0-14.2,10-24.1,24.3-24.1c7.1,0,14.1,1.8,20.4,5.2c1.5,0.8,3.4,0.2,4.2-1.4c0.2-0.4,0.3-0.9,0.3-1.4V34.2c0-1.1-0.6-2.2-1.6-2.7
	c-7.3-3.9-15.6-5.9-23.9-5.8c-24.8,0-43.4,18.3-43.4,42.6s18.5,42.6,43.1,42.6c14.3,0,23.7-5.1,24.7-5.7c1-0.6,1.6-1.6,1.6-2.7V90.1
	C493.3,89,492.8,88,491.8,87.4L491.8,87.4z"/>
<path class="st0" d="M284.3,27.1h13.1c1.7,0,3.1,1.4,3.1,3.1v40.4l42.8-43.8c0.6-0.6,1.4-0.9,2.2-0.9h0.4c1.7,0,3.1,1.4,3.1,3.1
	c0,0,0,0,0,0v77.4c0,1.7-1.4,3.1-3.1,3.1l0,0h-13.1c-1.7,0-3.1-1.4-3.1-3.1c0,0,0,0,0,0V65.8l-42.9,43.9c-0.6,0.6-1.4,1-2.3,1h-0.3
	c-1.7,0-3.1-1.4-3.1-3.1V30.2C281.1,28.5,282.5,27.1,284.3,27.1z"/>
<path class="st0" d="M507.3,27.1h13.1c1.7,0,3.1,1.4,3.1,3.1v40.4l42.7-43.8c0.6-0.6,1.4-0.9,2.2-0.9h0.4c1.7,0,3.1,1.4,3.1,3.1
	v77.4c0,1.7-1.4,3.1-3.1,3.1h-13.1c-1.7,0-3.1-1.4-3.1-3.1c0,0,0,0,0,0V65.8l-42.9,43.9c-0.6,0.6-1.4,1-2.2,1h-0.3
	c-1.7,0-3.1-1.4-3.1-3.1V30.2C504.1,28.5,505.5,27.1,507.3,27.1z"/>
</svg>
